<?xml version="1.0" encoding="utf-8"?>
<!DOCTYPE svg PUBLIC "-//W3C//DTD SVG 1.1//EN" "http://www.w3.org/Graphics/SVG/1.1/DTD/svg11.dtd">
<svg version="1.1" xmlns="http://www.w3.org/2000/svg" xmlns:xlink="http://www.w3.org/1999/xlink" x="0px" y="0px" viewBox="0 0 225 55" enable-background="new 0 0 45 55" xml:space="preserve">
    <view id='pig-view' viewBox='0 0 45 55' />
    <view id='chicken-view' viewBox='45 0 45 55' />
    <view id='fox-view' viewBox='90 0 45 55' />
    <view id='rabbit-view' viewBox='135 0 45 55' />
    <view id='cow-view' viewBox='180 0 45 55' />
    <g id='pig'>
        <path fill="#F29E9F" d="M32.44,43.21c0.93,0.79,2.47,0.94,3.57,0.43c0.65-0.3,2.23-1.62,0.8-2.03c-0.77-0.22-1.51,0.29-1.42,1.09c0.12,1.13,1.28,1.68,2.29,1.63c0.36-0.02,1.16-0.59,0.43-0.55c-0.88,0.05-1.75-0.72-1.65-1.65c0.01-0.03,0.02-0.07,0.03-0.1c-0.5,0-0.56,0.12-0.17,0.36c0.13,0.3-0.5,0.73-0.67,0.84c-0.62,0.4-1.69,0.01-2.2-0.42C33.18,42.58,32.18,43,32.44,43.21L32.44,43.21z"/>
        <path fill="#F29E9F" d="M4.03,34.99c0,0,1.13-7.73,5.48-7.73c4.35,0,5.82,0,5.82,0s-2,7.73-6.35,7.73C4.62,34.99,4.03,34.99,4.03,34.99z"/>
        <path fill="#D76C79" d="M6.03,33.62c0,0,0.73-4.99,3.54-4.99c2.81,0,3.76,0,3.76,0s-1.29,4.99-4.1,4.99C6.41,33.62,6.03,33.62,6.03,33.62z"/>
        <path fill="#F29E9F" d="M40.9,34.99c0,0-1.12-7.73-5.48-7.73c-4.36,0-5.82,0-5.82,0s2,7.73,6.35,7.73C40.31,34.99,40.9,34.99,40.9,34.99z"/>
        <path fill="#D76C79" d="M38.89,33.62c0,0-0.73-4.99-3.54-4.99c-2.81,0-3.75,0-3.75,0s1.29,4.99,4.1,4.99C38.52,33.62,38.89,33.62,38.89,33.62z"/>
        <path fill="#F29E9F" d="M34.02,40.95c0-0.01,0-0.02,0-0.03c-0.02-0.17-0.05-0.37-0.09-0.59c-0.04-0.26-0.1-0.52-0.17-0.77c-0.01-0.04-0.02-0.09-0.04-0.13c-0.04-0.14-0.07-0.28-0.12-0.41c-0.01-0.02-0.01-0.05-0.02-0.07c0,0,0,0.01,0,0.01c0,0,0,0,0-0.01c0.36-0.83,0.56-1.72,0.56-2.64c0-1.72-0.68-3.32-1.85-4.66c0.05-0.3,0.09-0.6,0.09-0.91c0-4.01-4.44-7.27-9.91-7.27c-5.47,0-9.91,3.25-9.91,7.27c0,0.31,0.03,0.61,0.09,0.91c-1.16,1.35-1.85,2.95-1.85,4.66c0,0.92,0.2,1.81,0.56,2.64c-0.22,0.64-0.38,1.31-0.45,2c-0.03,0.29-0.05,0.58-0.05,0.88c0,5.54,5.2,10.04,11.61,10.04c0.6,0,1.18-0.05,1.75-0.13v1.55h3.83v-2.66c3.59-1.71,6.03-5.01,6.03-8.8C34.07,41.69,34.07,41.39,34.02,40.95C34.02,40.95,34.02,40.95,34.02,40.95z"/>
        <path fill="#D76C79" d="M33.58,38.95c-1.51,3.49-5.91,6.02-11.11,6.02V31.79v-8.32c-5.47,0-9.91,3.25-9.91,7.27c0,0.31,0.03,0.61,0.09,0.91c-1.16,1.35-1.85,2.95-1.85,4.66c0,0.92,0.2,1.81,0.56,2.64c-0.22,0.64-0.38,1.31-0.45,2c-0.03,0.29-0.05,0.58-0.05,0.88c0,3.8,2.44,7.1,6.03,8.81v2.66h3.83v-1.55c0.57,0.07,1.15,0.13,1.75,0.13V47c0.66,0,1.31-0.04,1.95-0.12C28.7,46.34,32.14,43.91,33.58,38.95C33.58,38.95,33.58,38.95,33.58,38.95z"/>
        <circle fill="#3C3C3B" cx="15.53" cy="33.01" r="1.21"/>
        <circle fill="#3C3C3B" cx="29.4" cy="33.01" r="1.21"/>
        <circle fill="#FFFFFF" cx="15.91" cy="32.69" r="0.46"/>
        <circle fill="#FFFFFF" cx="29.86" cy="32.69" r="0.46"/>
        <path fill="#F29E9F" d="M22.46,33.81c-4.11,0-7.32,2.21-7.32,5.03c0,2.82,3.22,5.03,7.32,5.03c4.11,0,7.32-2.21,7.32-5.03C29.79,36.02,26.57,33.81,22.46,33.81L22.46,33.81z"/>
        <ellipse fill="#D76C79" cx="22.46" cy="38.84" rx="6.15" ry="3.85"/>
        <circle fill="#3C3C3B" cx="19.25" cy="38.25" r="0.95"/>
        <circle fill="#3C3C3B" cx="25.82" cy="38.25" r="0.95"/>
        <path fill="#3C3C3B" d="M26.09,53.97c0.16,0,0.29,0.13,0.29,0.29V55h3.08c0-1.84-1.49-3.34-3.34-3.34c-1.84,0-3.33,1.49-3.33,3.34h3v-0.73C25.79,54.1,25.92,53.97,26.09,53.97z"/>
        <path fill="#3C3C3B" d="M18.76,53.97c0.16,0,0.29,0.13,0.29,0.29V55h3.08c0-1.84-1.49-3.34-3.34-3.34c-1.84,0-3.34,1.49-3.34,3.34h3v-0.73C18.47,54.1,18.6,53.97,18.76,53.97z"/>
    </g>
    <g id='chicken' transform='translate(45)'>
        <path fill="#AF5B2B" d="M37.75,41.62c0,7.23-6.88,13.16-15.37,13.16c-8.49,0-15.37-5.93-15.37-13.16c0-7.23,6.88-13.1,15.37-13.1C30.86,28.52,37.75,34.39,37.75,41.62z"/>
        <path fill="#B6382F" d="M23.26,19.41c-0.49,0-0.88-0.39-0.88-0.88V15.6c0-0.49,0.39-0.88,0.88-0.88c0.49,0,0.88,0.39,0.88,0.88v2.94C24.14,19.02,23.74,19.41,23.26,19.41z"/>
        <path fill="#B6382F" d="M24.82,20.29c-0.49,0-0.88-0.39-0.88-0.88v-2.94c0-0.49,0.39-0.88,0.88-0.88c0.49,0,0.88,0.39,0.88,0.88v2.94C25.7,19.9,25.31,20.29,24.82,20.29z"/>
        <path fill="#F6E9E5" d="M34.2,35.96l-11.69-2.08l-11.65,1.93c-1.06,3.19-1.06,6.77-1.06,6.77C9.96,49.47,15.58,55,22.5,55h0c6.93,0,12.55-5.54,12.71-12.42C35.22,42.58,35.21,39.11,34.2,35.96z"/>
        <path fill="#D3C5C1" d="M10.86,35.82c-1.06,3.19-1.06,6.77-1.06,6.77C9.96,49.47,15.58,55,22.5,55h0V41.73l0.01-7.84L10.86,35.82z"/>
        <path fill="#C07C61" d="M34.2,35.96c-0.28-0.86-0.62-1.7-1.07-2.44c-0.54-0.88-0.91-1.85-1.18-2.79c-0.46-1.62-0.6-3.17-0.64-4.1c0-0.04,0-0.07,0-0.11c0-0.16-0.02-0.32-0.02-0.47c0-0.19,0-0.31,0-0.31l-0.01,0.02c-0.39-4.51-4.16-8.05-8.77-8.05h0c-4.6,0-8.37,3.53-8.77,8.03l0-0.01c0,0,0,0.03,0,0.07c-0.02,0.24-0.04,0.47-0.04,0.71c0,0.07,0.01,0.15,0.01,0.22c-0.05,0.89-0.18,2.27-0.57,3.73c-0.27,1.03-0.67,2.09-1.25,3.04c-0.43,0.69-0.76,1.48-1.03,2.3c1,0.59,2.31,0.56,3.29-0.2c0.1-0.08,0.19-0.16,0.28-0.24c-0.05,0.08-0.11,0.15-0.16,0.24c-0.82,1.4-0.35,3.2,1.05,4.02c1.4,0.82,3.2,0.35,4.02-1.04c0.04-0.08,0.08-0.15,0.12-0.23c-0.02,0.12-0.03,0.24-0.03,0.36c-0.05,1.62,1.22,2.98,2.84,3.02c0.03,0,0.06,0,0.09,0c0.06,0,0.1-0.01,0.16-0.01c1.51-0.08,2.73-1.29,2.78-2.83c0.01-0.12,0-0.24-0.01-0.36c0.04,0.09,0.08,0.17,0.13,0.25c0.8,1.42,2.59,1.91,4,1.12c1.42-0.8,1.91-2.59,1.12-4c-0.04-0.07-0.08-0.14-0.13-0.2c0.03,0.03,0.07,0.06,0.11,0.09C31.55,36.74,33.1,36.78,34.2,35.96z"/>
        <path fill="#AF5B2B" d="M14.14,35.62c0.1-0.08,0.19-0.16,0.28-0.24c-0.05,0.08-0.11,0.15-0.16,0.24c-0.82,1.4-0.35,3.2,1.05,4.02c1.4,0.82,3.2,0.35,4.02-1.04c0.04-0.08,0.08-0.15,0.12-0.23c-0.02,0.12-0.03,0.24-0.03,0.36c-0.05,1.62,1.22,2.98,2.84,3.02c0.03,0,0.06,0,0.09,0c0.06,0,0.1-0.01,0.16-0.01V17.72h0c-4.6,0-8.37,3.53-8.77,8.03l0-0.01c0,0,0,0.03,0,0.07c-0.02,0.24-0.04,0.47-0.04,0.71c0,0.07,0.01,0.15,0.01,0.22c-0.05,0.89-0.18,2.27-0.57,3.73c-0.27,1.03-0.67,2.09-1.25,3.04c-0.43,0.69-0.76,1.48-1.03,2.3C11.86,36.41,13.16,36.38,14.14,35.62z"/>
        <path fill="#EA575B" d="M20.22,13.4c0.6,0.48,0.99,0.98,1.35,1.4c0.18,0.22,0.31,0.34,0.49,0.54c0.18,0.22,0.39,0.48,0.55,0.78c0.34,0.6,0.55,1.32,0.54,2.03c-0.02,0.71-0.22,1.42-0.74,2c-0.46-0.62-0.77-1.12-1.06-1.58c-0.29-0.46-0.54-0.85-0.79-1.3c-0.13-0.23-0.25-0.46-0.39-0.75c-0.15-0.3-0.3-0.72-0.33-1.06C19.78,14.76,19.87,14.09,20.22,13.4z"/>
        <path fill="#EA575B" d="M25.68,32.75C25.68,32.75,25.68,32.74,25.68,32.75c0-1.96-1.77-3.55-3.23-3.55c-1.46,0-3.23,1.59-3.23,3.54c0,0.78-0.06,2.84,1.42,2.84c0.44,0,0.82-0.2,1.08-0.51c0.24,0.03,0.49,0.04,0.73,0.04c0.24,0,0.48-0.01,0.73-0.04c0.26,0.31,0.65,0.51,1.08,0.51C25.74,35.58,25.68,33.53,25.68,32.75z"/>
        <path fill="#D3C5C1" d="M18.9,22.75c-2.16,0-3.92,1.67-3.92,3.72c0,2.06,1.75,3.72,3.92,3.72c1.62,0,3.01,0.23,3.61-1.09v-4.1C21.91,23.69,20.52,22.75,18.9,22.75z"/>
        <path fill="#F6E9E5" d="M26.12,30.2c2.16,0,3.92-1.67,3.92-3.72c0-2.06-1.75-3.72-3.92-3.72c-1.62,0-3.02,0.94-3.61,2.27c0,0,0-0.01-0.01-0.01v4.1c0,0,0-0.01,0.01-0.01C23.1,30.44,24.5,30.2,26.12,30.2z"/>
        <path fill="#F39E2B" d="M21.82,29.29l-0.95,0.63c-0.38,0.25-0.5,0.78-0.27,1.17l1.49,2.5c0.12,0.2,0.27,0.29,0.43,0.29v-4.78C22.26,29.11,22.01,29.17,21.82,29.29z"/>
        <path fill="#FBDD58" d="M22.93,33.59l1.49-2.5c0.23-0.39,0.11-0.92-0.27-1.17l-0.95-0.63c-0.19-0.13-0.44-0.19-0.69-0.19v4.78C22.66,33.88,22.82,33.79,22.93,33.59z"/>
        <path fill="#4E1412" d="M18.32,25.22c-0.25,0-0.49,0.08-0.68,0.2c-0.04-0.03-0.1-0.06-0.14-0.1l-0.48-0.56c-0.04,0.26-0.02,0.53,0.07,0.8c0.04,0.1,0.06,0.22,0.13,0.31c-0.11,0.19-0.17,0.4-0.17,0.63c0,0.7,0.57,1.27,1.27,1.27c0.7,0,1.27-0.57,1.27-1.27C19.59,25.78,19.02,25.22,18.32,25.22z"/>
        <path fill="#4E1412" d="M27.6,25.73c0.02-0.06,0.04-0.12,0.06-0.18c0.09-0.27,0.1-0.54,0.07-0.8l-0.06-0.01c-0.13,0.22-0.27,0.42-0.42,0.57c-0.02,0.02-0.05,0.04-0.07,0.06c-0.18-0.1-0.38-0.16-0.6-0.16c-0.7,0-1.27,0.57-1.27,1.27c0,0.7,0.57,1.27,1.27,1.27c0.7,0,1.27-0.57,1.27-1.27C27.85,26.2,27.76,25.94,27.6,25.73z"/>
        <circle fill="#FFFFFF" cx="18.84" cy="26.13" r="0.38"/>
        <circle fill="#FFFFFF" cx="27.14" cy="26.13" r="0.38"/>
    </g>
    <g id='fox' transform='translate(90)'>
        <path fill="#3C3C3B" d="M26.47,28.95c2.05-8.32,8.82-11.23,8.82-11.23s4.84,12.62-4.41,15.63L26.47,28.95z"/>
        <path fill="#AF5B2B" d="M27.46,29.71c2.64-7.9,6.87-9.28,6.87-9.28s3.66,7.54-4.38,12.15L27.46,29.71z"/>
        <path fill="#3C3C3B" d="M18.52,28.95C16.46,20.63,9.7,17.72,9.7,17.72s-4.84,12.62,4.41,15.63L18.52,28.95z"/>
        <path fill="#EA8232" d="M34.8,40.41c-0.26-0.19-0.51-0.4-0.73-0.62c-0.59-0.59-1.06-1.3-1.32-2.1c-0.14-0.45-0.06-0.94-0.1-1.41c-0.03-0.39-0.07-0.77-0.14-1.16c-0.28-1.54-0.93-3.01-1.87-4.26c-1.91-2.54-4.96-4.06-8.14-4.06l-3.66,12.12l3.66,6.25l1.43,6.77V55h3.99v-5.05c0-0.07,0.18-0.2,0.23-0.25c0.15-0.16,0.3-0.32,0.44-0.48c0.28-0.34,0.53-0.69,0.76-1.07c0.47-0.8,0.8-1.68,0.96-2.59c0.05-0.26,0.08-0.53,0.1-0.79c0.02-0.21,0.43-0.31,0.62-0.4L35.8,41C35.48,40.78,35.12,40.64,34.8,40.41z"/>
        <path fill="#AF5B2B" d="M13.96,44.36c0.19,0.09,0.6,0.19,0.62,0.4c0.02,0.27,0.06,0.53,0.1,0.79c0.17,0.91,0.49,1.79,0.96,2.59c0.22,0.38,0.47,0.73,0.76,1.07c0.14,0.17,0.29,0.33,0.44,0.48c0.05,0.05,0.23,0.17,0.23,0.25V55h3.99v-3.07l1.43-6.77c0-3.18,0-8.12,0-11.3c0-2.36,0-4.71,0-7.07c-3.18,0-6.22,1.52-8.14,4.06c-0.94,1.25-1.59,2.72-1.87,4.26c-0.07,0.38-0.12,0.77-0.14,1.16c-0.03,0.47,0.05,0.96-0.1,1.41c-0.26,0.8-0.72,1.51-1.32,2.1c-0.23,0.23-0.47,0.43-0.73,0.62c-0.32,0.23-0.68,0.36-1,0.59L13.96,44.36z"/>
        <path fill="#D5D2B1" d="M17.72,45.81c0.09,0.58,0.17,1.14,0.26,1.67c0.46,2.71,1.18,4.59,4.52,4.59v0c3.44,0,4.13-1.9,4.58-4.64c0.08-0.51,0.16-1.06,0.24-1.62L17.72,45.81z"/>
        <path fill="#F6F3CF" d="M27.07,47.42c-1.35,0.7-2.91,1.1-4.58,1.11v3.54C25.94,52.06,26.63,50.16,27.07,47.42z"/>
        <path fill="#AF5B2B" d="M17.53,29.71c-2.64-7.9-6.87-9.28-6.87-9.28S7,27.98,15.03,32.58L17.53,29.71z"/>
        <path fill="#AF5B2B" d="M17.52,48.84c-2.7,2.22-6.24,0.73-8.33-1.58c-0.16-0.18-0.35-0.34-0.55-0.5c-0.89-0.04-1.85,0.06-2.64,0.5c0,0,1.42,1.07,1.96,2.24c0,0-1.59,0.32-2.84-0.46c0,0,0.16,1.88,1.49,3.5c0.42,0.13,0.86,0.24,1.35,0.34c8.19,1.61,10.55-3.04,10.55-3.04L17.52,48.84z"/>
        <path fill="#D5D2B1" d="M7.96,49.5C7.42,48.32,6,47.25,6,47.25c0.79-0.44,1.76-0.54,2.64-0.5c-2.31-1.83-6.61-1.9-6.61-1.9s-2.01,5.66,4.57,7.68c-1.33-1.62-1.49-3.5-1.49-3.5C6.37,49.82,7.96,49.5,7.96,49.5z"/>
        <path fill="#AF5B2B" d="M27.31,45.8c-0.08,0.56-0.16,1.11-0.24,1.62c1.28-0.66,2.36-1.59,3.17-2.7L27.31,45.8z"/>
        <path fill="#3C3C3B" d="M25.27,46.35c-0.26-0.64-0.74-1.16-1.34-1.49c-0.43-0.24-0.91-0.38-1.43-0.39c-0.01,0-0.01,0-0.02,0l0,0h0c-0.53,0-1.02,0.15-1.45,0.39c-0.6,0.33-1.08,0.85-1.34,1.49c0.53,0.27,1.09,0.57,1.66,0.9c0.37,0.22,0.74,0.44,1.13,0.69v0l0,0l0,0v0c0.39-0.25,0.76-0.47,1.13-0.69C24.19,46.91,24.74,46.61,25.27,46.35z"/>
        <path fill="#D5D2B1" d="M19.72,46.35c0.26-0.64,0.74-1.16,1.34-1.49c-0.49-0.8-2.14-2.93-5.85-4.17c-2.74-0.91-5.09-0.34-6,0.32C9.21,41,11.97,44.53,19.72,46.35z"/>
        <path fill="#3C3C3B" d="M22.34,55c0-1.8-1.46-3.26-3.26-3.26S15.82,53.2,15.82,55H22.34z"/>
        <path fill="#3C3C3B" d="M29.18,55c0-1.8-1.46-3.26-3.26-3.26c-1.8,0-3.26,1.46-3.26,3.26H29.18z"/>
        <path fill="#F39E2B" d="M14.58,35.75c0,0,4.36-1.26,4.26,3.17C18.84,38.92,14.58,40.46,14.58,35.75"/>
        <path fill="#F39E2B" d="M25.98,38.92c0,0,4.26,1.55,4.26-3.17C30.24,35.75,25.88,34.49,25.98,38.92"/>
        <circle fill="#FFFFFF" cx="17.25" cy="36.91" r="0.79"/>
        <circle fill="#FFFFFF" cx="28.69" cy="36.91" r="0.79"/>
        <path fill="#F6F3CF" d="M25.27,46.35c-0.26-0.64-0.74-1.16-1.34-1.49c0.49-0.8,2.14-2.93,5.85-4.17c2.74-0.91,5.09-0.34,6,0.32C35.78,41,33.02,44.53,25.27,46.35z"/>
    </g>
    <g id='rabbit' transform='translate(135)'>
        <path fill="#F6E9E5" d="M28.98,32.54c1.51-1.99,7.93-6.54,5.91-15c-2.02-8.47-5.68-12.47-8.2-3.76c-2.51,8.71,0.57,17.21,0.57,17.21L28.98,32.54z"/>
        <path fill="#F29E9F" d="M30.49,12.25c0,0,0,1.76-0.47,3.98c-0.47,2.22,1.8,7.42-0.48,12.96C29.55,29.19,38.04,23.09,30.49,12.25z"/>
        <path fill="#F6E9E5" d="M16.73,32.54c-1.51-1.99-7.93-6.54-5.91-15c2.02-8.47,5.68-12.47,8.2-3.76c2.51,8.71-0.57,17.21-0.57,17.21L16.73,32.54z"/>
        <path fill="#F29E9F" d="M15.22,12.25c0,0,0,1.76,0.47,3.98c0.47,2.22-1.8,7.42,0.48,12.96C16.16,29.19,7.68,23.09,15.22,12.25z"/>
        <path fill="#D3C5C1" d="M14.02,44.66c0,4.2,3.78,7.6,8.45,7.6V37.05C17.8,37.05,14.02,40.46,14.02,44.66z"/>
        <path fill="#F6E9E5" d="M30.91,44.66c0-4.2-3.78-7.6-8.45-7.6v15.21C27.13,52.26,30.91,48.86,30.91,44.66z"/>
        <path fill="#D3C5C1" d="M22.43,33.41c-5.4,0-9.78,3.4-9.78,7.6c0,4.2,4.38,8.39,9.78,8.39c5.4,0,9.79-4.19,9.79-8.39C32.22,36.81,27.83,33.41,22.43,33.41z"/>
        <rect x="17.25" y="50.4" fill="#D3C5C1" width="3.82" height="3.33"/>
        <path fill="#D3C5C1" d="M22.15,55c0-1.65-1.34-2.98-2.98-2.98c-1.65,0-2.98,1.34-2.98,2.98H22.15z"/>
        <rect x="23.86" y="50.4" fill="#F6E9E5" width="3.82" height="3.33"/>
        <path fill="#F6E9E5" d="M28.75,55c0-1.65-1.34-2.98-2.98-2.98c-1.65,0-2.99,1.34-2.99,2.98H28.75z"/>
        <path fill="#F6E9E5" d="M35.67,42.43c-1.37-0.69-2.15-5.77-2.15-5.77c-0.78-5.28-3.23-8.51-6.16-9.59c-0.14-0.05-0.27-0.1-0.4-0.16c-0.03-0.01-0.06-0.02-0.09-0.03c-1.26-0.48-2.78-0.76-4.41-0.76s-3.15,0.28-4.41,0.76c-0.03,0.01-0.06,0.02-0.09,0.04c-0.13,0.05-0.26,0.11-0.39,0.16c-2.93,1.08-5.38,4.31-6.16,9.59c0,0-0.78,5.09-2.15,5.77c0,0,2.42,0.73,4.76,2.23c0,0,1.26,0.92,1.87,1.39c1.35,1.03,3.6,1.66,6.57,1.66c0.01,0,0.02,0,0.03,0c3.24,0,5.25-0.63,6.6-1.66c0.62-0.47,1.21-0.98,1.84-1.39c0-0.01,0-0.01,0-0.02C33.27,43.15,35.67,42.43,35.67,42.43z M22.46,39.1c-0.01,0-0.01,0-0.02,0C22.45,39.1,22.46,39.1,22.46,39.1C22.47,39.1,22.47,39.1,22.46,39.1C22.47,39.1,22.47,39.1,22.46,39.1z"/>
        <path fill="#D3C5C1" d="M18.05,26.87c-0.03,0.01-0.06,0.02-0.09,0.04c-0.13,0.05-0.26,0.11-0.39,0.16c-2.93,1.08-5.38,4.31-6.16,9.59c0,0-0.78,5.09-2.15,5.77c0,0,2.42,0.73,4.76,2.23c0,0,1.26,0.92,1.87,1.39c1.35,1.03,3.6,1.66,6.57,1.66V39.1c-0.01,0-0.01,0-0.02,0c0.01,0,0.01,0,0.02,0v-4.03v-8.96C20.83,26.11,19.32,26.39,18.05,26.87z"/>
        <circle fill="#B6382F" cx="16.15" cy="35.92" r="1.61"/>
        <circle fill="#B6382F" cx="28.77" cy="35.92" r="1.61"/>
        <circle fill="#FFFFFF" cx="16.83" cy="35.42" r="0.5"/>
        <circle fill="#FFFFFF" cx="29.55" cy="35.42" r="0.5"/>
        <path fill="#F29E9F" d="M24.7,39.8l-2.27,0.26l-2.27-0.26c-0.21-0.03-0.41,0.13-0.43,0.34c-0.02,0.21,0.13,0.41,0.34,0.43l1.94,0.22v2.85c-0.13,0.15-0.43,0.44-0.73,0.28c-0.19-0.1-0.43-0.03-0.53,0.16c-0.1,0.19-0.03,0.43,0.16,0.53c0.19,0.1,0.38,0.15,0.56,0.15c0.38,0,0.71-0.2,0.96-0.42c0.24,0.22,0.57,0.42,0.95,0.42c0.18,0,0.37-0.04,0.56-0.14c0.19-0.1,0.27-0.34,0.17-0.53c-0.1-0.19-0.34-0.27-0.53-0.17c-0.32,0.17-0.61-0.12-0.73-0.27V40.8l1.94-0.22c0.21-0.02,0.37-0.22,0.34-0.43C25.11,39.93,24.92,39.77,24.7,39.8z"/>
    </g>
    <g id='cow' transform='translate(180)'>
        <rect x="16.88" y="48" fill="#D3C5C1" width="3.83" height="5.28"/>
        <rect x="24.21" y="48" fill="#F6E9E5" width="3.83" height="5.28"/>
        <path fill="#3C3C3B" d="M18.76,53.97c0.16,0,0.29,0.13,0.29,0.29V55h3.08c0-1.84-1.49-3.33-3.34-3.33c-1.84,0-3.34,1.49-3.34,3.33h3v-0.73C18.47,54.1,18.6,53.97,18.76,53.97z"/>
        <path fill="#3C3C3B" d="M26.09,53.97c0.16,0,0.29,0.13,0.29,0.29V55h3.08c0-1.84-1.49-3.33-3.34-3.33c-1.84,0-3.34,1.49-3.34,3.33h3v-0.73C25.79,54.1,25.92,53.97,26.09,53.97z"/>
        <path fill="#D3C5C1" d="M34.19,38.11c-1.5-5.16-6.18-7.97-11.73-7.97c-5.55,0-10.24,2.82-11.73,7.97c-0.32,1.12-0.51,2.34-0.51,3.68c0,5.14,5.48,9.31,12.24,9.31c3.32,0,6.33-1.01,8.54-2.65c2.19-1.62,3.57-3.86,3.68-6.35c0.01-0.11,0.02-0.21,0.02-0.32C34.7,40.45,34.52,39.23,34.19,38.11z"/>
        <path fill="#F6E9E5" d="M28.58,45.37c0.25-1.11,1.62-1.37,2.07-2.34c0.45-0.97,3.11-2.13,4.02-0.92c0.01-0.11,0.02-0.21,0.02-0.32c0-1.33-0.18-2.56-0.51-3.68c-1.5,3.86-6.18,6.67-11.73,6.67v6.31c3.32,0,6.33-1.01,8.54-2.65c-0.63-0.1-1.26-0.37-1.82-0.93C29.18,47.51,28.33,46.47,28.58,45.37z"/>
        <path fill="#3C3C3B" d="M34.68,42.1c-0.92-1.21-3.58-0.04-4.02,0.92c-0.45,0.97-1.82,1.24-2.07,2.34c-0.25,1.11,0.6,2.15,0.6,2.15c0.55,0.56,1.19,0.83,1.82,0.93C33.19,46.83,34.57,44.59,34.68,42.1z"/>
        <path fill="#3C3C3B" d="M15.94,45.57c0,0-0.79-0.84-0.29-1.69c0.51-0.84,1.86,0.29,1.86,0.29s1.3,0.85,1.65,0.95c1.38,0.42,1.17,1.8-0.48,2.46C17.51,48.06,15.94,45.57,15.94,45.57z"/>
        <path fill="#3C3C3B" d="M4.66,17c0,0,1.09,7.46,5.29,7.46c4.2,0,5.62,0,5.62,0S13.64,17,9.44,17C5.23,17,4.66,17,4.66,17z"/>
        <path fill="#D76C79" d="M6.6,18.32c0,0,0.7,4.82,3.42,4.82c2.71,0,3.63,0,3.63,0s-1.25-4.82-3.96-4.82S6.6,18.32,6.6,18.32z"/>
        <path fill="#3C3C3B" d="M40.26,17c0,0-1.09,7.46-5.29,7.46c-4.21,0-5.62,0-5.62,0S31.29,17,35.49,17C39.7,17,40.26,17,40.26,17z"/>
        <path fill="#D76C79" d="M38.33,18.32c0,0-0.7,4.82-3.42,4.82c-2.71,0-3.63,0-3.63,0s1.25-4.82,3.96-4.82C37.96,18.32,38.33,18.32,38.33,18.32z"/>
        <path fill="#3C3C3B" d="M24.5,27c-0.19-6.53,3.95-9.27,4.35-9.51c1.61,1.36,2.71,3.18,3.01,5.13c0.01,0.05,0.02,0.09,0.03,0.14c0,0,0.41,1.81,0.58,2.72c0.35,1.89,0.79,3.32,0.98,5.05C33.36,30.56,24.7,33.82,24.5,27z"/>
        <path fill="#F6E9E5" d="M33.56,31.82c-0.01-0.46-0.05-0.88-0.1-1.3c-0.09,0.04-8.76,3.29-8.95-3.53c-0.19-6.53,3.95-9.27,4.35-9.51c-1.7-1.44-3.96-2.36-6.45-2.36v0l-3.49,10.13l3.49,17.1v0.03c6.49,0,11.17-4.51,11.17-10.08C33.57,32.14,33.56,31.98,33.56,31.82z"/>
        <path fill="#D3C5C1" d="M16.01,17.49c0.39,0.25,4.54,2.98,4.35,9.51c-0.19,6.82-8.86,3.56-8.95,3.53c-0.05,0.41-0.08,0.84-0.1,1.3c0,0.16-0.01,0.32-0.01,0.49c0,5.57,4.68,10.08,11.17,10.08V15.13C19.97,15.13,17.71,16.05,16.01,17.49z"/>
        <path fill="#3C3C3B" d="M20.36,27c0.19-6.53-3.95-9.27-4.35-9.51c-1.61,1.36-2.71,3.18-3.01,5.13c-0.01,0.05-0.02,0.09-0.03,0.14c0,0-0.41,1.81-0.58,2.72c-0.35,1.89-0.79,3.32-0.98,5.05C11.5,30.56,20.16,33.82,20.36,27z"/>
        <ellipse fill="#F29E9F" cx="22.46" cy="37.04" rx="9.2" ry="6.02"/>
        <circle fill="#D76C79" cx="16.98" cy="36.11" r="1.32"/>
        <circle fill="#D76C79" cx="27.98" cy="36.11" r="1.32"/>
        <circle fill="#F5F0F2" cx="28.13" cy="25.15" r="2.09"/>
        <circle fill="#3C3C3B" cx="28.13" cy="25.15" r="1.47"/>
        <circle fill="#D3C5C1" cx="17.44" cy="25.15" r="2.09"/>
        <circle fill="#3C3C3B" cx="17.44" cy="25.15" r="1.47"/>
        <circle fill="#FFFFFF" cx="17.99" cy="24.71" r="0.54"/>
        <circle fill="#FFFFFF" cx="28.58" cy="24.71" r="0.54"/>
    </g>
</svg>
