<?xml version="1.0" encoding="utf-8"?>
<!DOCTYPE svg PUBLIC "-//W3C//DTD SVG 1.1//EN" "http://www.w3.org/Graphics/SVG/1.1/DTD/svg11.dtd">
<svg version="1.1" xmlns="http://www.w3.org/2000/svg" xmlns:xlink="http://www.w3.org/1999/xlink"
     viewBox="0 0 140 140" enable-background="new 0 0 140 140" xml:space="preserve">
     <view id="chrome" viewBox="0 0 140 140" />
     <view id="safari" viewBox="140 0 140 140" />
     <view id="opera" viewBox="280 0 140 140" />
     <view id="firefox" viewBox="420 0 140 140" />
     <view id="internet-explorer" viewBox="560 0 140 140" />
     <view id="android" viewBox="700 0 140 140" />
     <view id="ios" viewBox="840 0 140 140" />
<g id="chrome-graphic">
    <path fill="#FED130" d="M123.47,45.18c6.26,15.66,5.54,34.3-3.64,50.14c-12.12,21.02-35.51,31.51-58.15,28.2l26.73-46.27
        c5.88-10.2,2.39-23.27-7.8-29.12c-3.32-1.96-7-2.95-10.61-2.95H123.47z"/>
    <path fill="#E64A45" d="M123.47,45.18H70.01c-7.35,0-14.5,3.93-18.43,10.77c-3.85,6.62-3.69,14.59-0.22,20.9l-26.52-45.9
        C42.23,8.87,73.7,2.25,98.74,16.71C110.43,23.44,118.85,33.58,123.47,45.18z"/>
    <path fill="#51B84E" d="M88.41,77.28l-26.73,46.29c-7.01-1.01-13.93-3.35-20.43-7.09C13.7,100.57,4.28,65.39,20.17,37.88
        c1.42-2.48,2.98-4.75,4.66-6.91l26.52,45.93l0.22,0.38c1.8,3.13,4.44,5.86,7.8,7.77C69.53,90.93,82.55,87.44,88.41,77.28z"/>
    <path fill="#4793C6" d="M82.55,44.51c12.24,7.04,16.43,22.65,9.37,34.91c-7.05,12.21-22.69,16.41-34.9,9.34
        c-4.04-2.3-7.21-5.58-9.37-9.34l-0.27-0.46c-4.16-7.59-4.36-17.11,0.27-25.07c4.73-8.22,13.32-12.84,22.15-12.84
        C74.13,41.06,78.55,42.16,82.55,44.51z"/>
    <path fill="#FFFFFF" d="M69.76,94.14c-4.8,0-9.55-1.28-13.72-3.69c-4.18-2.39-7.67-5.87-10.08-10.06l-0.26-0.45
        c-4.63-8.45-4.52-18.79,0.27-27.03c4.9-8.51,14.03-13.8,23.83-13.8c4.85,0,9.6,1.29,13.73,3.73c6.35,3.65,10.91,9.58,12.81,16.67
        c1.9,7.09,0.93,14.51-2.75,20.89C88.7,88.88,79.57,94.14,69.76,94.14z M69.8,43c-8.41,0-16.26,4.55-20.47,11.86
        c-4.11,7.08-4.2,15.95-0.25,23.17l0.24,0.42c2.07,3.6,5.06,6.58,8.65,8.63c3.59,2.08,7.67,3.18,11.79,3.18
        c8.42,0,16.26-4.52,20.47-11.8c3.16-5.48,3.99-11.85,2.36-17.94c-1.64-6.09-5.55-11.17-11.01-14.32C78.02,44.1,73.96,43,69.8,43z"
        />
</g>
<g id="safari-graphic" transform="translate(140)">
    <circle fill="#78BEDD" cx="70" cy="73.03" r="51.11"/>
    <path fill="#EDEDED" d="M70.06,21.92c25.57,0,47.64,19.15,50.69,45.16c3.29,28.03-16.78,53.42-44.81,56.71
        c-2.02,0.24-4.03,0.35-6.01,0.35c-25.57,0-47.65-19.15-50.7-45.16c-3.29-28.03,16.78-53.42,44.81-56.71
        C66.07,22.03,68.08,21.92,70.06,21.92 M70.07,15.48v6.44V15.48c-2.25,0-4.52,0.13-6.77,0.4c-15.27,1.79-28.92,9.42-38.45,21.48
        c-9.53,12.06-13.79,27.11-12,42.37c3.4,28.99,27.94,50.85,57.09,50.85c2.24,0,4.52-0.13,6.76-0.4
        c15.27-1.79,28.92-9.42,38.45-21.48c9.53-12.06,13.79-27.11,12-42.37C123.75,37.34,99.21,15.48,70.07,15.48L70.07,15.48z"/>
    <path fill="#FFFFFF" d="M81.1,78.16c0.35-0.82,0.6-1.68,0.76-2.56l9.83-6.19l-11.46-2.33
        c-1.81-2.89-4.77-4.89-8.13-5.48l-6.17-9.78L63.6,63.27c-0.75,0.47-1.45,1.02-2.07,1.64l-6.67-2.02l4.3,5.4
        c-0.46,0.96-0.79,1.98-0.98,3.04l-9.73,6.15L59.8,79.8c1.8,2.89,4.76,4.9,8.12,5.49l6.19,9.82l2.33-11.49
        c0.88-0.56,1.68-1.23,2.38-1.98l6.66,2.02L81.1,78.16z M72.17,84.67c-6.2,1.17-12.17-2.88-13.37-9.08
        c-1.17-6.2,2.89-12.17,9.08-13.36c6.2-1.17,12.17,2.88,13.36,9.08C82.42,77.51,78.36,83.48,72.17,84.67z"/>
    <polygon fill="#EE4036" points="65.61,69.01 92.07,47.71 74.22,76.87     "/>
    <path fill="#F2F2F2" d="M75.59,73.03c0-3.2-2.59-5.79-5.79-5.79c-1.64,0-3.14,0.67-4.2,1.77L47.75,98.16
        l26.47-21.3C75.11,75.85,75.59,74.48,75.59,73.03z"/>
    <circle fill="#78BEDD" cx="70" cy="73.03" r="2.5"/>
    <path fill="#C1C4C6" d="M61.31,15.87c-2.46,0-4.46-1.51-4.77-3.59c-0.17-1.16,0.2-2.32,1.05-3.27c0.83-0.92,2.01-1.54,3.33-1.73
        c0.29-0.04,0.58-0.06,0.87-0.06c2.45,0,4.46,1.51,4.77,3.59c0.35,2.35-1.62,4.6-4.38,5C61.89,15.85,61.6,15.87,61.31,15.87z
         M61.8,8.3c-0.24,0-0.48,0.02-0.71,0.05C60.02,8.51,59.07,9,58.41,9.74c-0.63,0.7-0.91,1.55-0.79,2.38
        c0.23,1.54,1.78,2.66,3.69,2.66c0.24,0,0.47-0.02,0.71-0.05c2.17-0.32,3.72-2.01,3.46-3.76C65.26,9.42,63.71,8.3,61.8,8.3z"/>
    <path fill="#C1C4C6" d="M59.51,18.25l-0.26-1.76c-0.24-1.64,0.9-3.17,2.54-3.41l0,0c1.64-0.24,3.17,0.9,3.41,2.54l0.26,1.76
        C65.69,19.01,59.75,19.89,59.51,18.25z"/>
</g>
<g id="opera-graphic" transform="translate(280)">
    <circle fill="#D84839" cx="70" cy="66.57" r="57.55"/>
    <path fill="#F2F2F2" d="M90.44,36.66c-5.62-3.6-12.58-5.58-20.42-5.58c-7.18,0-13.61,1.66-18.96,4.69
            c-10.3,5.78-16.64,16.6-16.64,30.47c0,18.76,14.23,35.84,35.59,35.84c21.36,0,35.59-17.08,35.59-35.84
            C105.59,53.05,99.86,42.62,90.44,36.66z M70.01,37.35c11.46,0,13.78,14.79,13.78,28.22c0,12.44-1.29,29.09-13.64,29.09
            c-12.35,0-13.95-16.82-13.95-29.26C56.21,51.97,58.55,37.35,70.01,37.35z"/>
</g>
<g id="firefox-graphic" transform="translate(420)">
    <ellipse fill="#1899DC" cx="70.21" cy="63.77" rx="55.22" ry="54.88" />
    <path fill="#ED6236" d="M126.6,54.59c-0.76,2.95-0.91,3.92-1.35,4.67c0-0.12-0.03-3.28-1.03-7.74
        c-0.49-3.41-1.26-6.59-2.29-9.54c0.25,1.31,0.4,2.42,0.47,3.41c-0.79-2.1-1.8-4.29-3.08-6.46c-0.27-1.04-1.31-4.11-5.09-9.1
        c0,0,0.88,1.44,1.19,3.69c-6.21-7.09-25.78-16.49-42.3-16.28c0,0,23.02,5.97,27.21,12.27c0,0-4.91-2.83-10.71-2.02
        c4.27,1.68,6.46,4.64,9.53,6.49c2.59,1.64,5.2,3.65,7.29,6.02c-0.83-0.35-1.75-0.71-2.77-1.07c0.34,0.12,2.12,0.82,3.78,2.3
        c2.16,2.83,3.53,6.11,3.32,9.85c-1.17-1.81-1.98-3.11-4.44-5.12c2.44,9.48,1.91,24.11-0.07,30.29c-0.57-3.68-1.29-5.51-2.4-6.38
        c1.55,12.71-1.33,15.75-7.05,21.87c1.08-3.74,1.52-6.8,1.27-9.21c-6.72,10.05-14.36,15.25-22.92,15.58
        c-3.38-0.03-6.58-0.54-9.59-1.52l0,0c-4.41-1.48-8.41-4-11.97-7.59c5.56,0.46,10.63-0.5,15.09-2.76l7.31-4.74
        c0.95-0.35,4.04-4.33,0.65-5.96c-3.66-1.9-7.48-1.6-11.46,0.92c-3.79,2.14-7.45,2.06-11-0.22c-2.33-1.6-4.58-3.74-6.75-6.42
        l-0.94-1.3c-0.99-2.82,1-4.12,3.11-4.44c0,0,3.88-0.74,8.51,1.65c0.67-4.69-0.43-7.62-1.83-9.46c2.81-2.58,5.32-4.47,7.46-5.69
        c0.89-0.47,1.43-1.17,1.66-2.09c0.56-0.22,0.96-0.77,0.96-1.41c0-0.01,0-0.02,0-0.03c0-0.01,0-0.01,0-0.02c0-0.39-0.17-0.75-0.43-1
        c-0.28-0.28-0.66-0.46-1.09-0.46c-0.39,0-0.73,0.15-1,0.38c-1.61,0.01-3.23-0.14-4.84-0.46c-0.84-0.24-1.92-0.89-3.22-2.14
        l-3.28-3.25l-1.05-0.81c0.03-0.14,0.07-0.33,0.08-0.38c0.46-2.47,1.22-4.58,2.3-6.39l0.24-0.22c1.08-1.79,3.17-3.71,6.23-5.77
        c-5.69,0.7-10.84,3.25-15.41,7.64c-3.79-1.38-8.29-1.08-13.46,0.89c-3.25-1.49-2.89-5.77-3.95-12.73
        c-4.15,4.06-8.68,11.32-8.54,21.81c0,0-3.79,5.8-4.23,6.62c-1.66,3.12-2.18,4.98-2.27,7.17c0.01-0.02-0.01,0.62,0,0.6
        c0.02,0.45,0.07,0.89,0.19,1.3c0,0,1.8-2.44,3.36-2.74c-0.34,0.19-2.03,6.31-2.44,9.75c-1.25,11.3,1.92,22.46,9.56,33.48
        C34.59,115.16,49,123.1,66.34,124.15c17.34,1.03,32.13-5.36,44.35-19.13c8.26-10.13,13.33-20.73,15.22-31.8
        C127.81,65.61,128.09,60.12,126.6,54.59z M31.39,94.89c-0.09-0.01-0.25-0.14-0.47-0.37c0.17,0.12,0.34,0.24,0.51,0.35L31.39,94.89z
        "/>
    <path fill="#CE5332" d="M97.86,87.23c0.29-1.77,0.37-3.33,0.23-4.69c-0.02,0.03-0.05,0.06-0.07,0.1c-0.19,1.69-0.59,3.59-1.2,5.71
        C97.18,87.96,97.53,87.59,97.86,87.23z"/>
    <path fill="#CE5332" d="M49.63,64.09c0,0,3.88-0.74,8.51,1.65c0.24-1.67,0.24-3.11,0.1-4.37c-0.03,0.32-0.05,0.63-0.1,0.96
        c-4.63-2.39-8.51-1.65-8.51-1.65c-2.11,0.33-4.1,1.62-3.11,4.44l0.28,0.39C47.43,64.72,48.51,64.27,49.63,64.09z"/>
    <path fill="#CE5332" d="M30.92,91.12c0.22,0.23,0.39,0.35,0.47,0.37l0.04-0.02C31.27,91.36,31.1,91.24,30.92,91.12z"/>
    <path fill="#CE5332" d="M53.86,29.12c-1.08,1.82-1.84,3.93-2.3,6.39c-0.01,0.05-0.05,0.24-0.08,0.38l0.7,0.54
        c0.44-1.43,0.98-2.74,1.68-3.91l0.24-0.22c1.08-1.79,3.17-3.71,6.23-5.77c-1.9,0.23-3.73,0.69-5.5,1.34
        c-0.28,0.35-0.53,0.69-0.73,1.03L53.86,29.12z"/>
    <path fill="#CE5332" d="M125.92,69.82c-1.9,11.08-6.96,21.67-15.22,31.8c-12.22,13.76-27.01,20.16-44.35,19.13
        c-17.34-1.05-31.75-8.99-43.21-23.81c-6.15-8.88-9.4-17.85-9.78-26.91c-0.38,10.22,2.86,20.32,9.78,30.32
        c11.46,14.82,25.87,22.76,43.21,23.81c17.34,1.03,32.13-5.36,44.35-19.13c8.26-10.13,13.33-20.73,15.22-31.8
        c1.26-5.06,1.79-9.18,1.58-13C127.34,63.1,126.82,66.21,125.92,69.82z"/>
    <path fill="#CE5332" d="M14.72,57.74c0.55-2.16,1.11-3.94,1.29-4.04c-1.56,0.29-3.36,2.74-3.36,2.74
        c-0.01-0.04-0.02-0.08-0.03-0.13c-0.09,0.54-0.14,1.08-0.16,1.63c0.01-0.02-0.01,0.62,0,0.6c0.02,0.45,0.07,0.89,0.19,1.3
        C12.65,59.84,13.6,58.55,14.72,57.74z"/>
    <path fill="#CE5332" d="M100.34,26.11c-1.33-2-4.57-3.97-8.36-5.72c-6.15-1.97-12.71-3.22-18.86-3.14c0,0,11.04,2.86,19.22,6.72
        C96.88,24.13,100.34,26.11,100.34,26.11z"/>
    <path fill="#CE5332" d="M107.17,46.68c-0.25-0.23-0.53-0.46-0.83-0.71c1.02,3.96,1.51,8.81,1.61,13.57
        C108.03,55.27,107.8,50.74,107.17,46.68z"/>
    <path fill="#CE5332" d="M107.45,37.83c-1.66-1.47-3.44-2.17-3.78-2.3c1.02,0.36,1.94,0.72,2.77,1.07
        c-2.09-2.37-4.7-4.38-7.29-6.02c-1.32-0.8-2.49-1.81-3.72-2.83c-1.69-0.36-3.68-0.55-5.8-0.26c4.27,1.68,6.46,4.64,9.53,6.49
        c2.59,1.64,5.2,3.65,7.29,6.02c-0.83-0.35-1.75-0.71-2.77-1.07c0.34,0.12,2.12,0.82,3.78,2.3c1.35,1.77,2.39,3.71,2.93,5.84
        c0.13,0.2,0.26,0.4,0.39,0.61C110.98,43.94,109.61,40.65,107.45,37.83z"/>
    <path fill="#CE5332" d="M104.21,70.19c-0.11-0.11-0.22-0.22-0.33-0.31c0.19,1.53,0.31,2.92,0.37,4.19
        C104.3,72.9,104.29,71.62,104.21,70.19z"/>
</g>
<g id="internet-explorer-graphic" transform="translate(560)">
    <circle fill="#41A2F2" cx="70" cy="66.57" r="57.55"/>
    <path fill="#FFFFFF" d="M95.51,70.66H57.23c0.41,8.4,4.75,12.6,13.03,12.6c2.8,0,5.34-0.71,7.59-2.12
        c2.12-1.22,3.42-2.66,3.9-4.33h12.83c-3.9,11.16-12.18,16.73-24.83,16.73c-8.28,0-14.86-2.42-19.75-7.26
        c-4.89-4.84-7.34-11.14-7.34-18.9c0-7.56,2.51-13.83,7.54-18.8c5.03-4.97,11.54-7.45,19.55-7.45c8.62,0,15.29,3.01,20.01,9.04
        C94.14,55.69,96.05,62.52,95.51,70.66z M57.99,61.67h22.19c-1.28-6.6-4.9-9.9-10.86-9.9c-3.84,0-6.79,1.2-8.84,3.6
        C58.95,57.17,58.11,59.27,57.99,61.67z"/>
    <path fill="#FFC41D" d="M47.86,83.88c-3.77,0.75-6.67,0.32-8.15-1.48c-4.06-4.94,4.05-18.33,18.12-29.91
        c14.07-11.58,28.77-16.96,32.84-12.03c1.69,2.06,1.26,5.58-0.82,9.83c0.1,0.13,0.2,0.26,0.29,0.39c3.36-5.66,4.37-10.41,2.25-12.99
        c-4.37-5.31-20.36,0.64-35.71,13.27s-24.27,27.18-19.9,32.49c1.92,2.33,6.08,2.48,11.44,0.86C48.1,84.18,47.98,84.03,47.86,83.88z"
        />
</g>
<g id="android-graphic" transform="translate(700)">
    <circle fill="#B2CE49" cx="70" cy="66.57" r="57.55"/>
    <path fill="#F2F2F2" d="M35,76.04c0,2.79,2.26,5.06,5.06,5.06c2.79,0,5.06-2.26,5.06-5.06V56.6c0-2.79-2.26-5.06-5.06-5.06
        c-2.79,0-5.06,2.26-5.06,5.06V76.04z"/>
    <path fill="#F2F2F2" d="M94.89,76.04c0,2.79,2.26,5.06,5.06,5.06s5.06-2.26,5.06-5.06V56.6c0-2.79-2.26-5.06-5.06-5.06
        s-5.06,2.26-5.06,5.06V76.04z"/>
    <path fill="#F2F2F2" d="M56,101.71c0,2.79,2.26,5.06,5.06,5.06c2.79,0,5.06-2.26,5.06-5.06V82.26c0-2.79-2.26-5.06-5.06-5.06
        c-2.79,0-5.06,2.26-5.06,5.06V101.71z"/>
    <path fill="#F2F2F2" d="M73.89,101.71c0,2.79,2.26,5.06,5.06,5.06S84,104.5,84,101.71V82.26c0-2.79-2.26-5.06-5.06-5.06
        s-5.06,2.26-5.06,5.06V101.71z"/>
    <path fill="#F2F2F2" d="M80.45,32.7l4.37-6.24c0.25-0.35,0.16-0.84-0.19-1.08c-0.35-0.25-0.84-0.16-1.08,0.19l-4.54,6.48
        c-2.6-1.06-5.74-1.7-9.01-1.7s-6.41,0.64-9.01,1.7l-4.54-6.48c-0.25-0.35-0.73-0.44-1.08-0.19c-0.35,0.25-0.44,0.73-0.19,1.08
        l4.37,6.24c-7.35,3.62-11.52,10.62-11.52,15.35H70h21.97C91.97,43.32,87.8,36.31,80.45,32.7z M60.76,41.92
        c-1.34,0-2.43-1.09-2.43-2.43s1.09-2.43,2.43-2.43c1.34,0,2.43,1.09,2.43,2.43S62.11,41.92,60.76,41.92z M79.24,41.92
        c-1.34,0-2.43-1.09-2.43-2.43s1.09-2.43,2.43-2.43c1.34,0,2.43,1.09,2.43,2.43S80.58,41.92,79.24,41.92z"/>
    <path fill="#F2F2F2" d="M48.22,86.21c0,2.76,2.24,5,5,5h33.56c2.76,0,5-2.24,5-5V56.54c0-2.76-2.24-5-5-5H53.22
        c-2.76,0-5,2.24-5,5V86.21z"/>
    <rect x="48.22" y="51.54" fill="#F2F2F2" width="43.56" height="5.44"/>
</g>
<g id="ios-graphic" transform="translate(840)">
    <circle fill="#B3B3B3" cx="70" cy="66.57" r="57.55"/>
    <path fill="#FFFFFF" d="M69.01,45.21c0,0-0.11-7.17,3.52-11.78
        c4.06-5.16,11.49-6.7,11.49-6.7s1.06,6.13-3.17,11.92C75.42,46.09,69.01,45.21,69.01,45.21z"/>
    <path fill="#FFFFFF" d="M85.17,43.91c-6.09-0.12-10.37,3.1-14.96,3.09
        c-3.79-0.01-7.18-2.69-14.23-2.78C42.4,44.03,37.52,58.94,37.97,68.43c0.73,15.48,11.59,34.05,19.73,34.15
        c6.55,0.08,7.32-3.11,13.01-3.06c5.79,0.05,7.47,2.96,13.37,2.91c10.15-0.09,17.29-20.34,17.29-20.34s-10.02-3.46-10.44-15.04
        c-0.35-9.78,8.14-15.64,8.14-15.64S94.38,44.09,85.17,43.91z"/>
</g>
</svg>
