<?xml version="1.0" encoding="utf-8"?>
<!DOCTYPE svg PUBLIC "-//W3C//DTD SVG 1.1//EN" "http://www.w3.org/Graphics/SVG/1.1/DTD/svg11.dtd">

<svg version="1.1" xmlns="http://www.w3.org/2000/svg" viewBox="0 0 100 100">
<title>Bunny Icons</title>
<desc>A series of bunny images from The Noun Project created by Brad Ashburn</desc>
<defs>
    <style><![CDATA[
        g { visibility: hidden; }
        g:target { visibility: initial; }
    ]]></style>
</defs>

<g id='carrot-bunny'>
<path fill="#000000" d="M41.159,45.93c0,1.015-0.686,1.57-1.531,1.57c-0.846,0-1.531-0.555-1.531-1.57  c0-1.015,0.685-1.838,1.531-1.838C40.745,44.092,41.159,45.142,41.159,45.93z"/>
<path fill="#000000" stroke="#010101" stroke-width="1.9041" stroke-linecap="round" stroke-linejoin="round" stroke-miterlimit="10" d="  M62.936,25.485"/>
<path fill="#000000" stroke="#010101" stroke-width="1.9041" stroke-linecap="round" stroke-linejoin="round" stroke-miterlimit="10" d="  M52.864,34.776"/>
<path fill="#000000" d="M51.017,51.407c-1.361-0.245-2.084-0.779-2.469-1.253c0.574-0.619,0.724-1.54-1.006-1.54  c-1.529,0-1.44,0.935-0.927,1.553c-0.386,0.47-1.11,0.996-2.464,1.24c-0.302,0.054-0.503,0.343-0.448,0.645  c0.048,0.269,0.282,0.457,0.546,0.457c0.033,0,0.066-0.003,0.099-0.009c1.78-0.32,2.729-1.083,3.236-1.775  c0.507,0.692,1.456,1.455,3.236,1.775c0.033,0.006,0.066,0.009,0.099,0.009c0.264,0,0.498-0.189,0.546-0.457  C51.52,51.75,51.319,51.461,51.017,51.407z"/>
<path fill="#000000" d="M53.787,45.93c0,1.015,0.686,1.57,1.531,1.57c0.846,0,1.531-0.555,1.531-1.57  c0-1.015-0.686-1.838-1.531-1.838C54.201,44.092,53.787,45.142,53.787,45.93z"/>
<path fill="#000000" d="M84.114,41.276c-0.001-0.016,0.001-0.031,0-0.047c-0.02-0.184-0.52-4.562-2.522-9.558  c-2.688-6.71-6.828-11.273-11.971-13.196c-2.957-1.105-5.619-0.94-7.911,0.489c-5.634,3.514-7.028,13.584-7.225,15.285  c-2.123-0.695-4.408-1.047-6.835-1.047c-2.383,0-4.611,0.349-6.685,1.031c-0.379-2.947-0.906-6.41-1.617-9.86  C38.276,19.165,37,15.002,35.555,12c-1.936-4.023-4.244-6.063-6.86-6.063c-0.954,0-1.937,0.278-2.923,0.825  c-2.625,1.458-4.214,3.66-4.722,6.544c-0.869,4.929,1.432,11.758,6.839,20.299c1.517,2.396,3.079,4.599,4.432,6.408  c-0.74,0.828-1.447,1.722-2.111,2.7c-0.676,0.994-1.288,2.036-1.845,3.107h-6.855c-0.438,0-0.793,0.355-0.793,0.793  c0,0.438,0.355,0.793,0.793,0.793h6.081c-0.384,0.839-0.736,1.692-1.059,2.55l-3.956,0.821c-0.429,0.089-0.705,0.509-0.616,0.938  c0.078,0.375,0.408,0.632,0.776,0.632c0.053,0,0.108-0.005,0.162-0.017l3.016-0.626c-1.916,5.791-2.611,11.634-2.859,15.349  c-0.521,7.803,0.208,15.77,1.814,19.825c1.972,4.978,4.775,7.764,7.894,7.845c2.946,0.071,5.7-2.275,7.774-6.621  c0.659,0.149,1.377,0.286,2.147,0.4c1.194,0.176,2.59,0.302,4.139,0.302c2.144,0,4.582-0.242,7.183-0.927  c1.187,4.178,3.413,6.763,6.16,7.111c0.216,0.027,0.432,0.041,0.648,0.041c2.678,0,5.343-2.081,7.399-5.816  c2.179-3.958,3.573-10.794,3.769-18.219c0.127,0.009,0.254,0.014,0.382,0.014c0,0,0,0,0,0c0.757,0,1.496-0.152,2.197-0.45  c2.844-1.213,4.171-4.513,2.958-7.356c-0.097-0.229-0.209-0.449-0.334-0.661c1.259-0.608,2.233-1.648,2.759-2.955  c0.559-1.389,0.543-2.913-0.045-4.291c-0.883-2.071-2.908-3.409-5.159-3.409c-0.668,0-1.322,0.118-1.948,0.351  c-0.066-0.236-0.148-0.469-0.245-0.698c-0.772-1.81-2.417-3.06-4.323-3.346c-0.388-0.923-0.803-1.811-1.246-2.657l3.15-0.931  c1.066,0.978,2.195,1.815,3.356,2.473c1.767,1.002,3.491,1.51,5.017,1.51c1.038,0,1.986-0.236,2.793-0.712  c1.312-0.774,2.868-2.539,2.827-6.556C84.119,41.307,84.115,41.292,84.114,41.276z M29.497,32.586  c-5.073-8.013-7.345-14.566-6.573-18.95c0.409-2.323,1.643-4.027,3.772-5.21c0.7-0.389,1.372-0.586,1.999-0.586  c3.419,0,6.539,6.002,8.786,16.899c0.74,3.589,1.277,7.193,1.656,10.199c-0.405,0.181-0.802,0.38-1.194,0.59  c-0.308-3.118-1.975-7.369-2.594-10.365c-2.501-12.106-5.159-14.599-7.162-14.043c-1.604,0.446-2.164,1.483-2.761,2.954  c-1.398,3.444,5.364,18.728,8.905,23.944c-0.226,0.196-0.45,0.397-0.67,0.605C32.377,36.899,30.919,34.833,29.497,32.586z   M41.059,76.537c-0.788,1.457-3.035,2.632-4.999,1.989c-3.616-1.182-7.078-4.746-6.7-9.269c0.044-0.524-0.345-0.984-0.869-1.028  c-0.526-0.042-0.984,0.345-1.028,0.869c-0.217,2.589,0.55,5.079,2.217,7.198c1.466,1.864,3.521,3.298,5.788,4.04  c0.544,0.178,1.118,0.262,1.699,0.262c0.164,0,0.329-0.009,0.494-0.022c-0.192,1.937-0.232,3.595-0.234,4.591  c-0.501-0.199-0.782-0.336-0.79-0.34c-0.47-0.235-1.041-0.045-1.277,0.424c-0.236,0.47-0.046,1.042,0.423,1.278  c0.068,0.034,1.109,0.55,2.879,1.083c-1.683,3.373-3.793,5.256-5.85,5.21c-2.275-0.059-4.525-2.481-6.174-6.643  c-1.736-4.383-2.09-12.92-1.684-18.997c0.394-5.903,1.474-11.331,3.13-15.926l2.314-0.48c0.429-0.089,0.705-0.509,0.616-0.938  c-0.089-0.429-0.508-0.705-0.938-0.616l-1.309,0.272c0.297-0.72,0.61-1.416,0.937-2.086h0.533c0.438,0,0.793-0.355,0.793-0.793  c0-0.344-0.22-0.634-0.526-0.744c0.408-0.732,0.834-1.43,1.28-2.087c3.913-5.758,9.251-8.678,15.867-8.678  c7.12,0,12.713,3.226,16.64,9.572l-0.962,0.284c-0.42,0.124-0.66,0.565-0.536,0.986c0.102,0.345,0.418,0.569,0.761,0.569  c0.074,0,0.15-0.011,0.225-0.033l1.335-0.394c0.376,0.695,0.73,1.424,1.065,2.18c-0.336,0.075-0.666,0.177-0.988,0.314  c-1.378,0.587-2.444,1.676-3.003,3.066c-0.455,1.132-0.522,2.353-0.216,3.511c-0.385-0.036-0.779-0.06-1.188-0.06  c-2.316,0-8.744,0.698-18.377,7.162c-1.778,1.193-3.471,2.472-4.961,3.74c-0.481-1.575-0.498-2.742-0.498-2.766  c-0.001-0.525-0.426-0.95-0.951-0.951c0,0-0.001,0-0.001,0c-0.525,0-0.951,0.425-0.952,0.951c0,0.24,0.048,5.926,4.948,9.856  C41.329,74.165,41.698,75.356,41.059,76.537z M60.256,37.295c1.164-1.421,2.483-3.398,2.672-5.24  c0.196,0.854,0.433,1.699,0.718,2.529c-0.007,0.034-0.017,0.066-0.02,0.101c-0.002,0.023-0.234,2.15-2.074,3.694  C61.131,37.998,60.699,37.636,60.256,37.295z M37.758,66.903c-0.122-0.311-0.225-0.611-0.313-0.899  C37.533,66.291,37.637,66.592,37.758,66.903z M43.111,76.513c0.008-0.029,0.017-0.059,0.025-0.088v0c0,0,0.001,0,0.001,0  C43.129,76.454,43.119,76.484,43.111,76.513z M50.996,67.228c0.193,2.087,0.635,3.858,1.751,5.463  c-3.208,0.862-6.546,1.479-9.586,1.814c-0.246-1.044-0.911-2.043-1.979-2.899c-1.422-1.14-2.364-2.471-2.991-3.732  c1.454-1.279,3.217-2.649,5.276-4.031c6.382-4.283,12.855-6.839,17.316-6.839c3.362,0,5.506,1.348,6.555,4.121  c0.547,1.446,0.349,2.82-0.605,4.201c-0.494,0.715-1.168,1.398-1.981,2.046c0.482,0.18,0.793,0.183,0.871,0.18  c-0.214,0.01-2.322-0.022-4.901-4.055c-1.435-2.244-3.613-3.13-5.827-2.371C52.429,61.973,50.753,64.596,50.996,67.228z   M66.545,88.296c-1.799,3.268-4.095,5.063-6.14,4.805c-1.96-0.248-3.614-2.346-4.577-5.771c0.959-0.323,1.935-0.707,2.923-1.166  c0.477-0.222,0.684-0.788,0.462-1.265c-0.222-0.477-0.788-0.684-1.265-0.462c-0.287,0.133-0.572,0.257-0.856,0.376  c0.085-1.852,0.115-5.283-0.514-8.732c1.028,0.624,2.241,1.237,3.68,1.852c0.122,0.052,0.249,0.077,0.373,0.077  c0.37,0,0.721-0.217,0.876-0.578c0.207-0.483-0.018-1.043-0.502-1.249c-6.435-2.749-7.743-5.134-8.113-9.13  c-0.181-1.957,1.191-3.634,2.622-4.125c1.367-0.469,2.647,0.097,3.604,1.595c3.417,5.345,6.517,4.964,6.858,4.903  c0.518-0.092,0.862-0.587,0.77-1.104c-0.008-0.043-0.022-0.084-0.035-0.125c0,0,0,0,0,0c0.191-0.175,0.366-0.347,0.53-0.517  c0.576,1.293,1.599,2.29,2.843,2.843C69.935,77.739,68.594,84.574,66.545,88.296z M67.387,50.037c1.487,0,2.825,0.884,3.408,2.251  c0.194,0.454,0.293,0.933,0.297,1.422c0.003,0.355,0.203,0.679,0.518,0.84c0.316,0.162,0.695,0.134,0.985-0.071  c0.218-0.155,0.452-0.286,0.694-0.389c0.464-0.198,0.951-0.298,1.45-0.298c1.487,0,2.825,0.884,3.408,2.251  c0.388,0.91,0.399,1.916,0.03,2.834c-0.369,0.918-1.073,1.636-1.983,2.024c-0.243,0.104-0.499,0.182-0.761,0.231  c-0.349,0.066-0.631,0.321-0.734,0.661c-0.102,0.34-0.007,0.708,0.247,0.956c0.351,0.342,0.627,0.745,0.82,1.199  c0.801,1.878-0.075,4.057-1.953,4.858c-0.464,0.198-0.951,0.298-1.45,0.298h0c-1.487,0-2.825-0.884-3.408-2.251  c-0.101-0.237-0.178-0.486-0.228-0.741c-0.017-0.086-0.048-0.167-0.087-0.244c1.016-1.744,1.18-3.563,0.479-5.416  c-0.925-2.445-2.611-4.082-4.949-4.849c-0.015-0.042-0.027-0.084-0.048-0.124c-0.056-0.105-0.101-0.199-0.139-0.287  c-0.388-0.91-0.398-1.916-0.029-2.834c0.369-0.918,1.073-1.637,1.983-2.024C66.4,50.137,66.888,50.037,67.387,50.037z   M66.186,44.118c-0.978-1.646-2.071-3.112-3.268-4.399c0.872-0.768,1.457-1.632,1.845-2.417c0.336,0.697,0.702,1.381,1.103,2.048  c0.875,1.454,1.881,2.795,2.978,3.982L66.186,44.118z M80.326,46.24c-1.391,0.82-3.543,0.523-5.904-0.815  c-0.709-0.402-1.426-0.896-2.135-1.471c0.331-0.171,0.506-0.558,0.396-0.929c-0.124-0.42-0.565-0.66-0.986-0.536l-0.785,0.232  c-3.605-3.554-6.661-9.234-6.707-15.998c-0.004-0.524-0.429-0.946-0.952-0.946c-0.002,0-0.005,0-0.007,0  c-0.253,0.002-0.48,0.104-0.65,0.265c-0.307,0.074-3.123,0.98-4.869,9.604c-0.471-0.257-0.952-0.496-1.444-0.712  c0.035-0.084,0.062-0.172,0.071-0.267c0.003-0.027,0.278-2.754,1.228-5.884c0.855-2.815,2.439-6.523,5.135-8.204  c1.789-1.116,3.829-1.221,6.236-0.321c5.833,2.18,9.122,7.771,10.854,12.078c1.796,4.467,2.343,8.527,2.407,9.046  C82.232,43.82,81.58,45.5,80.326,46.24z"/>
</g>

<g id='happy-bunny'>
<path d="M41.287,50.562c-0.163,0-0.326-0.068-0.441-0.201c-0.212-0.244-0.186-0.613,0.058-0.824  c1.655-1.437,3.309-1.781,4.468-1.798c-1.932-1.926-3.586-1.409-3.605-1.403c-0.306,0.102-0.637-0.063-0.739-0.369  c-0.102-0.306,0.063-0.637,0.369-0.739c0.123-0.041,3.05-0.962,5.843,2.921c0.147,0.205,0.146,0.482-0.003,0.686  c-0.149,0.204-0.413,0.289-0.653,0.21c-0.097-0.03-2.471-0.747-4.914,1.374C41.559,50.515,41.423,50.562,41.287,50.562z"/>
<path d="M53.56,48.217c-0.123,0-0.246-0.039-0.349-0.116c-0.203-0.151-0.285-0.415-0.205-0.655c1.525-4.532,4.593-4.514,4.723-4.512  c0.323,0.007,0.578,0.275,0.571,0.597c-0.007,0.318-0.267,0.571-0.584,0.571c-0.003,0-0.006,0-0.008,0  c-0.093,0-1.783,0.039-3.037,2.402c1.113-0.325,2.794-0.484,4.8,0.402c0.295,0.13,0.429,0.475,0.298,0.771  c-0.13,0.295-0.476,0.429-0.771,0.298c-2.987-1.32-5.08,0.119-5.101,0.134C53.796,48.181,53.678,48.217,53.56,48.217z"/>
<ellipse transform="matrix(0.9933 -0.1159 0.1159 0.9933 -5.9837 5.0712)" cx="40.625" cy="54.001" rx="2.705" ry="1.725"/>
<ellipse transform="matrix(0.9933 -0.1159 0.1159 0.9933 -5.565 7.4571)" cx="61.343" cy="51.584" rx="2.705" ry="1.725"/>
<path d="M81.267,41.645c0-0.005,0-0.009-0.001-0.014l0,0c0-0.002,0-0.003,0-0.005c-0.025-0.227-0.525-4.532-2.492-9.442  c-2.657-6.633-6.749-11.143-11.833-13.043c-2.923-1.092-5.554-0.929-7.819,0.484c-4.965,3.097-6.598,11.346-7.033,14.294  c0.006,0.001,0.011,0.003,0.017,0.005c-1.631-0.438-3.364-0.659-5.198-0.659c-0.026,0-0.052,0.001-0.078,0.003  c-0.866,0.072-1.694,0.176-2.491,0.307c-0.379-3.004-0.917-6.608-1.655-10.192c-1.06-5.147-2.322-9.262-3.75-12.229  C37.021,7.176,34.74,5.16,32.153,5.16c-0.943,0-1.915,0.275-2.889,0.816c-2.595,1.441-4.165,3.617-4.668,6.468  c-0.858,4.872,1.416,11.622,6.76,20.064c1.207,1.907,2.443,3.689,3.577,5.246c0.016-0.015,0.034-0.03,0.05-0.045  c-1.528,1.401-2.71,3.128-3.555,5.194c-2.094,5.118-1.974,11.664-1.847,18.595c0.03,1.648,0.061,3.353,0.061,5.039  c0,1.176-0.022,2.303-0.061,3.38c-0.347-0.187-0.743-0.288-1.175-0.288c-0.495,0-1.017,0.138-1.53,0.402  c-0.513-0.264-1.035-0.402-1.53-0.402c-1.164,0-2.072,0.732-2.432,1.91c-0.918,0.237-1.595,0.756-1.896,1.474  c-0.295,0.702-0.209,1.497,0.237,2.281c-0.447,0.785-0.533,1.579-0.237,2.281c0.302,0.717,0.978,1.237,1.896,1.473  c0.36,1.178,1.268,1.91,2.432,1.91c0.495,0,1.017-0.138,1.53-0.401c0.513,0.264,1.034,0.401,1.53,0.401  c0.014,0,0.028-0.001,0.043-0.002c-0.123,0.689-0.241,1.287-0.346,1.781c-0.815,3.836-1.516,8.12,0.498,10.413  c0.948,1.08,2.357,1.554,4.189,1.406c5.201-0.416,7.353-6.941,7.912-9.036c0.733,0.258,1.553,0.503,2.45,0.702  c1.195,0.264,2.606,0.459,4.168,0.459c1.646,0,3.459-0.217,5.361-0.799c-0.244,2.925-0.209,6.005,1.327,7.697  c0.78,0.859,1.862,1.294,3.218,1.294c1.883,0,4.62-0.862,6.962-4.97c2.105-3.692,3.546-9.387,4.284-16.927  c0.082-0.837,0.149-1.694,0.2-2.569c0.052-0.049,0.104-0.099,0.156-0.152c0.937-0.985,2.116-2.3,2.022-4.183  c-0.117-2.334-1.481-3.698-2.23-4.304c-0.59-8.274-2.822-16.741-7.715-22.291c0.406-0.254,0.907-0.692,1.378-1.437  c0.293,0.588,0.606,1.167,0.947,1.734c1.986,3.302,4.66,6.016,7.528,7.642c1.747,0.99,3.45,1.493,4.958,1.493  c1.026,0,1.963-0.233,2.761-0.703c1.297-0.764,2.834-2.509,2.794-6.476c0-0.001,0-0.002,0-0.003v-0.002  C81.272,41.697,81.27,41.671,81.267,41.645z M32.946,31.501c-5.014-7.92-7.26-14.397-6.497-18.731  c0.405-2.296,1.624-3.981,3.728-5.149c0.692-0.384,1.357-0.579,1.976-0.579c3.38,0,6.464,5.932,8.684,16.704  c0.74,3.592,1.277,7.205,1.652,10.199h0c-0.412,0.099-0.815,0.207-1.206,0.324c-0.34-3.068-1.951-7.189-2.554-10.104  c-2.472-11.966-5.099-14.43-7.079-13.88c-1.586,0.441-2.139,1.466-2.729,2.92c-1.314,3.239,4.671,17.072,8.271,22.851  c-0.272,0.165-0.534,0.339-0.79,0.519C35.305,35.066,34.113,33.343,32.946,31.501z M28.727,79.273  c-0.093,0.037-0.199,0.059-0.32,0.059c-0.319,0-0.692-0.136-1.078-0.394c-0.137-0.091-0.294-0.137-0.451-0.137  c-0.157,0-0.315,0.046-0.452,0.137c-0.386,0.258-0.759,0.394-1.078,0.394c-0.696,0-0.893-0.685-0.949-1.094  c-0.05-0.367-0.342-0.654-0.71-0.697c-0.606-0.072-1.043-0.295-1.17-0.597c-0.119-0.284,0.011-0.705,0.358-1.154  c0.226-0.293,0.226-0.701,0-0.993c-0.347-0.45-0.478-0.87-0.358-1.154c0.127-0.302,0.565-0.525,1.17-0.597  c0.368-0.044,0.66-0.33,0.71-0.697c0.056-0.408,0.253-1.094,0.949-1.094c0.319,0,0.692,0.136,1.078,0.394  c0.274,0.182,0.629,0.182,0.903,0c0.386-0.258,0.759-0.394,1.078-0.394c0.695,0,0.893,0.685,0.949,1.094  c0.013,0.096,0.044,0.187,0.087,0.269C29.268,75.229,29.001,77.467,28.727,79.273z M68.89,65.994  c0.068,1.37-0.784,2.405-1.368,3.019c-0.625,0.657-1.457,0.664-1.482,0.665c-0.07-0.003-0.14,0.004-0.209,0.018  c-0.531,0.109-1.048,0.164-1.537,0.164c-2.825,0-4.668-1.826-6.46-3.86c-2.413-2.738-3.587-6.298-3.329-8.158  c0.118-0.849,0.491-1.465,1.142-1.884c0.5-0.322,0.944-0.486,1.32-0.486c1.031,0,1.836,1.372,2.615,2.699  c0.262,0.447,0.533,0.909,0.816,1.321c1.741,2.536,2.915,3.668,5.274,3.668c0.218,0,0.445-0.009,0.693-0.028  c0.095-0.007,0.185-0.024,0.279-0.042c0.126-0.024,0.268-0.051,0.41-0.051C68.007,63.038,68.834,64.879,68.89,65.994z   M46.085,54.155c-0.013-0.112-0.024-0.227-0.034-0.343l10.11-1.179c0.018,0.115,0.033,0.229,0.046,0.341  c0.03,0.26,0.049,0.518,0.059,0.773c-0.516,0.11-1.044,0.338-1.599,0.695c-0.698,0.45-1.225,1.061-1.564,1.801  c-0.119-0.128-0.246-0.251-0.381-0.368c-1.041-0.903-2.1-1.312-3.148-1.215c-1.172,0.108-2.13,0.818-2.97,1.694l0,0  C46.356,55.669,46.176,54.93,46.085,54.155z M65.895,55.335c0.363,1.886,0.627,3.878,0.795,5.923  c-0.152,0.017-0.284,0.041-0.384,0.06c-0.034,0.007-0.064,0.013-0.09,0.017c-0.195,0.015-0.379,0.022-0.545,0.022  c-1.47,0-2.178-0.539-3.788-2.885c-0.247-0.36-0.49-0.775-0.748-1.214c-0.851-1.449-1.89-3.22-3.613-3.539h0  c-0.01-0.295-0.032-0.592-0.067-0.892c-0.039-0.33-0.095-0.672-0.168-1.017c-0.067-0.317-0.363-0.531-0.686-0.493l-11.278,1.315  c-0.322,0.038-0.562,0.314-0.555,0.638c0.008,0.352,0.032,0.698,0.071,1.028c0.131,1.125,0.422,2.178,0.838,3.121  c-0.138,0.17-0.273,0.339-0.406,0.506c-0.348,0.436-0.676,0.848-1,1.201c-2.427,2.64-3.582,3.606-7.003,4.086  c-0.541,0.076-0.917,0.575-0.842,1.116c0.076,0.541,0.576,0.916,1.116,0.842c4.222-0.592,5.785-2.097,8.184-4.705  c0.371-0.404,0.737-0.863,1.091-1.307c0.956-1.199,1.944-2.439,2.942-2.531c0.498-0.047,1.044,0.196,1.672,0.74  c0.641,0.556,0.95,1.282,0.947,2.222c-0.008,2.058-1.835,5.739-4.878,8.336c-2.65,2.261-4.424,2.733-7.645,2.989  c-0.544,0.043-0.95,0.519-0.907,1.063c0.041,0.517,0.474,0.91,0.984,0.91c0.026,0,0.053-0.001,0.079-0.003  c3.528-0.28,5.74-0.869,8.771-3.456c1.325-1.131,2.664-2.71,3.674-4.332c0.413-0.664,0.864-1.488,1.223-2.391  c0.014,0.033,0.028,0.067,0.043,0.099c0.703,1.596,1.708,3.195,2.759,4.387c1.994,2.262,4.24,4.471,7.813,4.471  c0.584,0,1.194-0.062,1.814-0.184c0.127-0.004,0.343-0.02,0.611-0.074c-0.035,0.464-0.073,0.928-0.118,1.389  c-1.256,12.836-4.672,20.198-9.373,20.198c-0.814,0-1.411-0.221-1.825-0.677c-1.18-1.299-1.014-4.57-0.787-6.917  c0.007-0.076,0.004-0.151-0.006-0.223c0.916-0.394,1.846-0.879,2.782-1.47c0.427-0.269,0.554-0.834,0.284-1.26  c-0.269-0.427-0.833-0.554-1.26-0.284c-3.964,2.505-8.271,3.276-12.799,2.293c-3.404-0.739-5.674-2.248-5.717-2.276  c-0.417-0.283-0.985-0.175-1.269,0.242c-0.284,0.417-0.176,0.985,0.242,1.269c0.055,0.038,0.801,0.538,2.07,1.121  c-0.162,0.638-0.601,2.184-1.413,3.754c-1.334,2.58-2.979,3.966-4.888,4.119c-1.225,0.097-2.083-0.155-2.625-0.772  c-1.56-1.776-0.554-6.507-0.071-8.781c0.59-2.778,1.581-8.629,1.581-16.592c0-1.703-0.031-3.417-0.062-5.074  c-0.123-6.731-0.24-13.088,1.707-17.847c2.111-5.16,6.489-7.852,13.777-8.469c4.982,0.009,9.144,1.818,12.37,5.376  C62.412,43.932,64.686,49.055,65.895,55.335z M59.836,38.351c-0.475-0.462-0.968-0.892-1.475-1.292l0,0  c0.802-1.013,1.773-2.593,1.965-4.482v0c0.248,1.076,0.568,2.137,0.959,3.174C60.629,37.694,59.836,38.351,59.836,38.351z   M77.522,46.583c-1.375,0.811-3.502,0.517-5.835-0.805c-4.822-2.733-10.039-9.683-10.099-18.485  c-0.004-0.52-0.428-0.932-0.947-0.935c-0.244,0.002-3.757-0.541-5.347,8.764c-0.455-0.224-0.919-0.43-1.393-0.614  c0.003,0.001,0.005,0.002,0.008,0.003c0.136-0.98,0.466-2.979,1.135-5.181c0.845-2.782,2.411-6.447,5.075-8.109  c1.768-1.103,3.785-1.207,6.164-0.318c5.765,2.155,9.016,7.682,10.728,11.938c1.784,4.435,2.32,8.462,2.38,8.946  C79.406,44.194,78.761,45.853,77.522,46.583z"/>
</g>

<g id='sad-bunny'>
<path d="M46.522,80.226c-0.939,0-1.998-0.106-3.192-0.356c-0.497-0.104-0.816-0.591-0.712-1.088  c0.104-0.497,0.591-0.815,1.088-0.712c3.052,0.638,6.756,0.395,8-2.202c0.395-0.826,0.266-1.443,0.15-1.541  c0.004,0.005-0.022,0.003-0.067,0.013c-3.82,0.773-8.204-3.165-8.389-3.333c-0.376-0.342-0.403-0.923-0.062-1.299  c0.342-0.375,0.923-0.403,1.298-0.062c1.07,0.97,4.374,3.382,6.787,2.892c0.801-0.162,1.541,0.134,1.979,0.792  c0.667,1.001,0.493,2.646-0.424,4.002C52.322,78.303,50.515,80.225,46.522,80.226z"/>
<path d="M56.669,61.974c-0.216,0-0.409-0.154-0.451-0.374c-0.122-0.647-0.429-1.057-0.937-1.253c-1.152-0.445-3.05,0.29-3.976,0.991  c-0.202,0.154-0.49,0.113-0.644-0.089c-0.153-0.202-0.113-0.491,0.089-0.644c1.087-0.823,3.314-1.713,4.862-1.116  c0.562,0.217,1.281,0.729,1.51,1.94c0.047,0.249-0.117,0.49-0.366,0.537C56.726,61.972,56.698,61.974,56.669,61.974z"/>
<path d="M43.011,50.172c-0.029-0.006-0.058-0.009-0.088-0.013c0.255-0.287,0.392-0.496,0.392-0.496s-0.642-1.116-1.215-0.097  c-0.69,1.226-3.009,2.12-3.009,2.12c0.78,0.168,1.478,0.042,2.072-0.212c-0.058,0.144-0.106,0.296-0.141,0.456  c-0.253,1.155,0.226,2.242,1.07,2.427c0.844,0.185,1.734-0.601,1.988-1.756C44.334,51.444,43.855,50.357,43.011,50.172z"/>
<path d="M69.612,54.742c0,0-2.158-1.232-2.656-2.547c-0.414-1.094-1.216-0.086-1.216-0.086s0.104,0.228,0.313,0.55  c-0.029,0-0.058-0.002-0.088,0c-0.863,0.057-1.5,1.059-1.422,2.239c0.077,1.18,0.839,2.092,1.702,2.035  c0.862-0.056,1.499-1.059,1.422-2.239c-0.011-0.163-0.036-0.321-0.071-0.472C68.145,54.562,68.816,54.791,69.612,54.742z"/>
<path d="M38.538,60.934C38.538,60.934,38.538,60.934,38.538,60.934c-0.668,0-1.294-0.244-1.719-0.67  c-0.902-0.904-1.454-2.459-0.534-3.736c1.702-2.361,5.574-2.448,5.737-2.451c0.14-0.006,0.267,0.081,0.322,0.209  c0.055,0.128,0.027,0.277-0.071,0.377c-0.011,0.011-1.1,1.132-1.483,2.369c-0.086,0.277-0.052,0.618-0.016,0.978  c0.071,0.716,0.16,1.606-0.691,2.375C39.699,60.734,39.136,60.934,38.538,60.934z M41.224,54.836  c-1.172,0.15-3.317,0.622-4.379,2.095c-0.685,0.95-0.241,2.141,0.462,2.845c0.297,0.297,0.745,0.468,1.231,0.468  c0.429,0,0.824-0.135,1.084-0.37c0.593-0.536,0.535-1.119,0.467-1.795c-0.041-0.413-0.084-0.84,0.043-1.251  C40.375,56.047,40.846,55.327,41.224,54.836z"/>
<path d="M68.803,60.214c-0.244,0-0.469-0.061-0.653-0.176c-0.548-0.343-0.586-0.841-0.616-1.241  c-0.015-0.193-0.028-0.375-0.097-0.508c-0.319-0.621-1.002-1.111-1.008-1.116c-0.076-0.054-0.112-0.149-0.09-0.24  c0.021-0.091,0.095-0.16,0.187-0.175c0.013-0.002,0.334-0.053,0.791-0.053c0.775,0,1.848,0.145,2.558,0.835  c0.633,0.615,0.482,1.525,0.074,2.11C69.706,59.998,69.267,60.214,68.803,60.214z M67.134,57.168  c0.239,0.228,0.524,0.546,0.712,0.91c0.111,0.216,0.129,0.453,0.146,0.683c0.027,0.358,0.051,0.667,0.402,0.887  c0.111,0.069,0.252,0.106,0.409,0.106c0.311,0,0.613-0.144,0.768-0.367c0.301-0.431,0.424-1.089-0.017-1.517  c-0.599-0.582-1.548-0.705-2.238-0.705C67.253,57.165,67.192,57.166,67.134,57.168z"/>
<path d="M73.592,31.366C91.648,16.257,88.287,7.194,88.108,6.753c-0.141-0.347-0.478-0.573-0.851-0.573c-0.004,0-0.009,0-0.014,0  c-9.75,0.148-17.695,5.256-22.975,14.772c-0.53,0.955-1.006,1.906-1.436,2.84c-1.408-0.498-2.942-0.907-4.616-1.193  c-1.691-0.289-3.388-0.435-5.045-0.435c-4.116,0-7.826,0.876-11.066,2.321c0,0,0,0,0,0c-3.17-6.865-8.232-11.039-12.462-13.484  c-6.169-3.566-11.792-4.296-12.028-4.325c-0.434-0.054-0.844,0.204-0.984,0.617c-1.228,3.613,2.113,9.236,9.931,16.712  c2.508,2.398,5.094,4.618,7.203,6.35c-2.428,2.534-4.197,5.392-5.206,8.177c-2.355,6.496-1.862,12.569,1.424,17.561  c1.764,2.679,4.294,4.942,7.364,6.679c-1.148,2.613-2.24,5.803-3.057,9.087c-0.371,1.492-0.775,3.372-1.075,5.444c0,0,0,0,0,0  c-0.078-0.01-0.157-0.019-0.238-0.019c-0.351,0-0.709,0.089-1.068,0.265c-0.359-0.176-0.718-0.265-1.068-0.265  c-0.875,0-1.568,0.556-1.863,1.471c-0.628,0.201-1.091,0.591-1.32,1.117c-0.237,0.546-0.195,1.182,0.114,1.814  c-0.309,0.633-0.351,1.269-0.114,1.814c0.228,0.526,0.692,0.916,1.32,1.117c0.294,0.915,0.988,1.471,1.863,1.471  c0.351,0,0.709-0.089,1.068-0.265c0.326,0.16,0.651,0.244,0.97,0.259c0.218,2.338,0.742,4.612,1.725,6.605  c0.05,0.102,0.121,0.192,0.207,0.266c0.916,0.786,1.89,1.185,2.893,1.185c2.706,0,4.731-2.936,5.538-4.325  c1.545,0.606,5.331,1.905,9.422,1.905c2.529,0,4.75-0.5,6.619-1.489c0.631,1.506,2.114,4.16,4.718,4.161c0,0,0,0,0,0  c0.564,0,1.146-0.129,1.729-0.384c1.723-0.753,2.81-3.591,3.231-8.436c0.207-2.383,0.231-5.106,0.089-7.935c0,0,0,0,0,0  c7.41-2.738,8.338-6.664,8.385-8.263c0.046-1.563-0.647-2.905-1.723-3.34c-0.738-0.299-1.516-0.107-2.079,0.511  c-1.214,1.333-3.789,1.358-5.741,1.105c-0.063-0.342-0.128-0.683-0.196-1.019c-0.136-0.672-0.276-1.31-0.42-1.923c0,0,0,0,0,0  c1.34-0.514,2.571-1.123,3.681-1.832c4.998-3.196,7.706-8.368,8.049-15.374c0.25-5.099-1.4-10.553-4.527-14.963  C74.208,32.155,73.912,31.763,73.592,31.366z M32.807,85.132c-0.208-0.031-0.432-0.114-0.657-0.248  c-0.074-0.044-0.158-0.067-0.241-0.067s-0.167,0.022-0.242,0.067c-0.288,0.172-0.573,0.263-0.827,0.263  c-0.509,0-0.88-0.369-1.019-1.013c-0.039-0.181-0.18-0.322-0.361-0.361c-0.468-0.101-0.802-0.331-0.94-0.648  c-0.143-0.329-0.076-0.755,0.189-1.198c0.089-0.149,0.089-0.334,0-0.483c-0.265-0.443-0.332-0.868-0.189-1.198  c0.138-0.317,0.471-0.547,0.94-0.648c0.181-0.039,0.322-0.18,0.361-0.361c0.139-0.644,0.51-1.013,1.019-1.013  c0.253,0,0.539,0.091,0.827,0.263c0.149,0.089,0.334,0.089,0.483,0c0.288-0.172,0.574-0.263,0.827-0.263  c0.038,0,0.074,0.006,0.111,0.01c0,0,0,0,0,0C32.812,80.427,32.669,82.797,32.807,85.132z M68.991,76.634  c0.011,0.169,0.02,0.337,0.03,0.505C69.011,76.971,69.001,76.803,68.991,76.634z M74.991,67.779c0.018-0.02,0.032-0.032,0.042-0.04  c0.134,0.062,0.51,0.455,0.559,1.31c0.113,1.956-1.614,4.658-6.666,6.661c0,0,0,0,0,0c-0.156-2.062-0.395-4.149-0.714-6.179  c0.263,0.026,0.536,0.048,0.817,0.062C71.763,69.728,73.77,69.12,74.991,67.779z M68.065,68.632  c-0.011-0.063-0.022-0.125-0.033-0.188C68.043,68.507,68.054,68.569,68.065,68.632z M86.617,9.476  c-0.045,1.239-0.376,3.284-1.701,5.988c-2.156,4.401-5.998,8.716-10.363,12.625c-0.868,0.605-1.697,1.139-2.45,1.594  c0.041,0.042,0.08,0.084,0.12,0.126c-1.347-1.404-3.028-2.809-5.103-4.027c0.027,0.016,0.055,0.031,0.082,0.047  c2.288-5.689,6.931-9.743,10.784-12.291c3.461-2.289,6.807-3.735,8.637-4.44C86.623,9.219,86.622,9.344,86.617,9.476z   M65.875,21.845c4.88-8.794,11.83-13.436,20.666-13.805c0.005,0.032,0.01,0.066,0.015,0.101c-1.806,0.681-5.369,2.181-9.058,4.618  c-5.387,3.559-9.157,7.861-11.103,12.614c0.033,0.018,0.064,0.037,0.097,0.055c-0.616-0.337-1.264-0.658-1.947-0.957  C64.946,23.604,65.387,22.725,65.875,21.845z M27.821,22.665c-6.45-6.17-9.807-11.091-9.598-14.022  c1.758,0.338,6.05,1.367,10.558,3.985c5.367,3.117,9.277,7.355,11.69,12.651c-0.962,0.511-1.875,1.075-2.739,1.68  c-1.328-3.617-4.586-7.437-9.73-11.396c-4.7-3.618-9.385-6.067-9.768-6.265c0.033,0.365,0.111,0.755,0.236,1.169  c3.08,1.683,15.701,8.989,18.482,17.057c-0.651,0.491-1.272,1.007-1.861,1.541C32.981,27.337,30.359,25.093,27.821,22.665z   M67.283,85.422c-0.404,4.649-1.416,6.685-2.228,7.04c-0.369,0.161-0.725,0.243-1.056,0.243h0c-2.257,0-3.455-3.91-3.466-3.949  c-0.074-0.257-0.266-0.464-0.516-0.557c-0.095-0.035-0.194-0.052-0.292-0.052c-0.162,0-0.323,0.047-0.462,0.138  c-1.763,1.16-3.984,1.747-6.6,1.747c-4.85,0-9.408-2.036-9.453-2.056c-0.416-0.189-0.909-0.01-1.106,0.403  c-0.543,1.133-2.391,4.075-4.4,4.075c-0.548,0-1.108-0.226-1.668-0.672c-1.253-2.642-2.834-8.584-0.112-19.518  c0.823-3.306,1.872-6.318,2.916-8.713c0,0,0,0,0,0c3.551,1.721,7.711,2.789,12.188,3.052c1.237,0.073,2.45,0.11,3.606,0.11  c4.204,0,7.895-0.49,11.043-1.457c0.129,0.553,0.252,1.12,0.37,1.703C67.271,73.031,67.745,80.105,67.283,85.422z M77.169,47.408  c-0.312,6.377-2.736,11.058-7.203,13.915c-3.686,2.357-8.845,3.552-15.333,3.552c-1.12,0-2.297-0.036-3.498-0.107  c-8.624-0.507-15.957-4.129-19.616-9.687c-2.954-4.488-3.38-9.994-1.231-15.923c2.645-7.299,10.934-15.155,22.882-15.155  c1.553,0,3.147,0.138,4.735,0.409c8.049,1.374,12.639,5.754,15.073,9.186C75.871,37.68,77.399,42.713,77.169,47.408z"/>
</g>

</svg>
